<?xml version="1.0" encoding="UTF-8"?>
<svg width="300" height="300" viewBox="0 0 300 300" fill="none" xmlns="http://www.w3.org/2000/svg">
  <rect width="300" height="300" fill="#1A1A1A"/>
  <path d="M150 100C133.431 100 120 113.431 120 130C120 146.569 133.431 160 150 160C166.569 160 180 146.569 180 130C180 113.431 166.569 100 150 100ZM150 150C138.954 150 130 141.046 130 130C130 118.954 138.954 110 150 110C161.046 110 170 118.954 170 130C170 141.046 161.046 150 150 150Z" fill="#333333"/>
  <path d="M150 120C144.477 120 140 124.477 140 130C140 135.523 144.477 140 150 140C155.523 140 160 135.523 160 130C160 124.477 155.523 120 150 120Z" fill="#666666"/>
  <path d="M150 180C155.523 180 160 184.477 160 190C160 195.523 155.523 200 150 200C144.477 200 140 195.523 140 190C140 184.477 144.477 180 150 180Z" fill="#666666"/>
  <path d="M100 150C100 144.477 104.477 140 110 140C115.523 140 120 144.477 120 150C120 155.523 115.523 160 110 160C104.477 160 100 155.523 100 150Z" fill="#666666"/>
  <path d="M180 150C180 144.477 184.477 140 190 140C195.523 140 200 144.477 200 150C200 155.523 195.523 160 190 160C184.477 160 180 155.523 180 150Z" fill="#666666"/>
</svg> 